G04 #@! TF.GenerationSoftware,KiCad,Pcbnew,(5.1.4)-1*
G04 #@! TF.CreationDate,2019-09-29T17:38:09-04:00*
G04 #@! TF.ProjectId,haptic-uhat,68617074-6963-42d7-9568-61742e6b6963,rev?*
G04 #@! TF.SameCoordinates,Original*
G04 #@! TF.FileFunction,Legend,Top*
G04 #@! TF.FilePolarity,Positive*
%FSLAX46Y46*%
G04 Gerber Fmt 4.6, Leading zero omitted, Abs format (unit mm)*
G04 Created by KiCad (PCBNEW (5.1.4)-1) date 2019-09-29 17:38:09*
%MOMM*%
%LPD*%
G04 APERTURE LIST*
%ADD10C,0.120000*%
%ADD11C,0.150000*%
%ADD12C,0.100000*%
G04 APERTURE END LIST*
D10*
X14880000Y-33687936D02*
X14880000Y-34892064D01*
X13060000Y-33687936D02*
X13060000Y-34892064D01*
X29335000Y-43652221D02*
X29335000Y-43977779D01*
X30355000Y-43652221D02*
X30355000Y-43977779D01*
D11*
X47410000Y-30900000D02*
X47410000Y-30925000D01*
X47410000Y-38950000D02*
X47410000Y-38925000D01*
X42760000Y-38950000D02*
X42760000Y-38925000D01*
X41685000Y-30850000D02*
X47410000Y-30850000D01*
X42760000Y-38950000D02*
X47410000Y-38950000D01*
D10*
X50954721Y-33530000D02*
X51280279Y-33530000D01*
X50954721Y-32510000D02*
X51280279Y-32510000D01*
X50954721Y-30922500D02*
X51280279Y-30922500D01*
X50954721Y-31942500D02*
X51280279Y-31942500D01*
X34415000Y-43652221D02*
X34415000Y-43977779D01*
X35435000Y-43652221D02*
X35435000Y-43977779D01*
X39495000Y-43652221D02*
X39495000Y-43977779D01*
X40515000Y-43652221D02*
X40515000Y-43977779D01*
X24255000Y-47787779D02*
X24255000Y-47462221D01*
X25275000Y-47787779D02*
X25275000Y-47462221D01*
X29335000Y-47787779D02*
X29335000Y-47462221D01*
X30355000Y-47787779D02*
X30355000Y-47462221D01*
X34415000Y-47787779D02*
X34415000Y-47462221D01*
X35435000Y-47787779D02*
X35435000Y-47462221D01*
X44575000Y-43652221D02*
X44575000Y-43977779D01*
X45595000Y-43652221D02*
X45595000Y-43977779D01*
X50675000Y-43652221D02*
X50675000Y-43977779D01*
X49655000Y-43652221D02*
X49655000Y-43977779D01*
X54735000Y-43652221D02*
X54735000Y-43977779D01*
X55755000Y-43652221D02*
X55755000Y-43977779D01*
X40515000Y-47787779D02*
X40515000Y-47462221D01*
X39495000Y-47787779D02*
X39495000Y-47462221D01*
X45595000Y-47787779D02*
X45595000Y-47462221D01*
X44575000Y-47787779D02*
X44575000Y-47462221D01*
X49655000Y-47787779D02*
X49655000Y-47462221D01*
X50675000Y-47787779D02*
X50675000Y-47462221D01*
X60835000Y-43652221D02*
X60835000Y-43977779D01*
X59815000Y-43652221D02*
X59815000Y-43977779D01*
X64895000Y-43652221D02*
X64895000Y-43977779D01*
X65915000Y-43652221D02*
X65915000Y-43977779D01*
X54735000Y-47787779D02*
X54735000Y-47462221D01*
X55755000Y-47787779D02*
X55755000Y-47462221D01*
X59815000Y-47787779D02*
X59815000Y-47462221D01*
X60835000Y-47787779D02*
X60835000Y-47462221D01*
X65330000Y-51440000D02*
X24570000Y-51440000D01*
X24570000Y-51440000D02*
X24570000Y-54100000D01*
X24570000Y-54100000D02*
X65330000Y-54100000D01*
X65330000Y-54100000D02*
X65330000Y-51440000D01*
X64380000Y-54100000D02*
X64380000Y-60100000D01*
X64380000Y-60100000D02*
X63620000Y-60100000D01*
X63620000Y-60100000D02*
X63620000Y-54100000D01*
X64320000Y-54100000D02*
X64320000Y-60100000D01*
X64200000Y-54100000D02*
X64200000Y-60100000D01*
X64080000Y-54100000D02*
X64080000Y-60100000D01*
X63960000Y-54100000D02*
X63960000Y-60100000D01*
X63840000Y-54100000D02*
X63840000Y-60100000D01*
X63720000Y-54100000D02*
X63720000Y-60100000D01*
X64380000Y-51110000D02*
X64380000Y-51440000D01*
X63620000Y-51110000D02*
X63620000Y-51440000D01*
X62730000Y-51440000D02*
X62730000Y-54100000D01*
X61840000Y-54100000D02*
X61840000Y-60100000D01*
X61840000Y-60100000D02*
X61080000Y-60100000D01*
X61080000Y-60100000D02*
X61080000Y-54100000D01*
X61840000Y-51042929D02*
X61840000Y-51440000D01*
X61080000Y-51042929D02*
X61080000Y-51440000D01*
X60190000Y-51440000D02*
X60190000Y-54100000D01*
X59300000Y-54100000D02*
X59300000Y-60100000D01*
X59300000Y-60100000D02*
X58540000Y-60100000D01*
X58540000Y-60100000D02*
X58540000Y-54100000D01*
X59300000Y-51042929D02*
X59300000Y-51440000D01*
X58540000Y-51042929D02*
X58540000Y-51440000D01*
X57650000Y-51440000D02*
X57650000Y-54100000D01*
X56760000Y-54100000D02*
X56760000Y-60100000D01*
X56760000Y-60100000D02*
X56000000Y-60100000D01*
X56000000Y-60100000D02*
X56000000Y-54100000D01*
X56760000Y-51042929D02*
X56760000Y-51440000D01*
X56000000Y-51042929D02*
X56000000Y-51440000D01*
X55110000Y-51440000D02*
X55110000Y-54100000D01*
X54220000Y-54100000D02*
X54220000Y-60100000D01*
X54220000Y-60100000D02*
X53460000Y-60100000D01*
X53460000Y-60100000D02*
X53460000Y-54100000D01*
X54220000Y-51042929D02*
X54220000Y-51440000D01*
X53460000Y-51042929D02*
X53460000Y-51440000D01*
X52570000Y-51440000D02*
X52570000Y-54100000D01*
X51680000Y-54100000D02*
X51680000Y-60100000D01*
X51680000Y-60100000D02*
X50920000Y-60100000D01*
X50920000Y-60100000D02*
X50920000Y-54100000D01*
X51680000Y-51042929D02*
X51680000Y-51440000D01*
X50920000Y-51042929D02*
X50920000Y-51440000D01*
X50030000Y-51440000D02*
X50030000Y-54100000D01*
X49140000Y-54100000D02*
X49140000Y-60100000D01*
X49140000Y-60100000D02*
X48380000Y-60100000D01*
X48380000Y-60100000D02*
X48380000Y-54100000D01*
X49140000Y-51042929D02*
X49140000Y-51440000D01*
X48380000Y-51042929D02*
X48380000Y-51440000D01*
X47490000Y-51440000D02*
X47490000Y-54100000D01*
X46600000Y-54100000D02*
X46600000Y-60100000D01*
X46600000Y-60100000D02*
X45840000Y-60100000D01*
X45840000Y-60100000D02*
X45840000Y-54100000D01*
X46600000Y-51042929D02*
X46600000Y-51440000D01*
X45840000Y-51042929D02*
X45840000Y-51440000D01*
X44950000Y-51440000D02*
X44950000Y-54100000D01*
X44060000Y-54100000D02*
X44060000Y-60100000D01*
X44060000Y-60100000D02*
X43300000Y-60100000D01*
X43300000Y-60100000D02*
X43300000Y-54100000D01*
X44060000Y-51042929D02*
X44060000Y-51440000D01*
X43300000Y-51042929D02*
X43300000Y-51440000D01*
X42410000Y-51440000D02*
X42410000Y-54100000D01*
X41520000Y-54100000D02*
X41520000Y-60100000D01*
X41520000Y-60100000D02*
X40760000Y-60100000D01*
X40760000Y-60100000D02*
X40760000Y-54100000D01*
X41520000Y-51042929D02*
X41520000Y-51440000D01*
X40760000Y-51042929D02*
X40760000Y-51440000D01*
X39870000Y-51440000D02*
X39870000Y-54100000D01*
X38980000Y-54100000D02*
X38980000Y-60100000D01*
X38980000Y-60100000D02*
X38220000Y-60100000D01*
X38220000Y-60100000D02*
X38220000Y-54100000D01*
X38980000Y-51042929D02*
X38980000Y-51440000D01*
X38220000Y-51042929D02*
X38220000Y-51440000D01*
X37330000Y-51440000D02*
X37330000Y-54100000D01*
X36440000Y-54100000D02*
X36440000Y-60100000D01*
X36440000Y-60100000D02*
X35680000Y-60100000D01*
X35680000Y-60100000D02*
X35680000Y-54100000D01*
X36440000Y-51042929D02*
X36440000Y-51440000D01*
X35680000Y-51042929D02*
X35680000Y-51440000D01*
X34790000Y-51440000D02*
X34790000Y-54100000D01*
X33900000Y-54100000D02*
X33900000Y-60100000D01*
X33900000Y-60100000D02*
X33140000Y-60100000D01*
X33140000Y-60100000D02*
X33140000Y-54100000D01*
X33900000Y-51042929D02*
X33900000Y-51440000D01*
X33140000Y-51042929D02*
X33140000Y-51440000D01*
X32250000Y-51440000D02*
X32250000Y-54100000D01*
X31360000Y-54100000D02*
X31360000Y-60100000D01*
X31360000Y-60100000D02*
X30600000Y-60100000D01*
X30600000Y-60100000D02*
X30600000Y-54100000D01*
X31360000Y-51042929D02*
X31360000Y-51440000D01*
X30600000Y-51042929D02*
X30600000Y-51440000D01*
X29710000Y-51440000D02*
X29710000Y-54100000D01*
X28820000Y-54100000D02*
X28820000Y-60100000D01*
X28820000Y-60100000D02*
X28060000Y-60100000D01*
X28060000Y-60100000D02*
X28060000Y-54100000D01*
X28820000Y-51042929D02*
X28820000Y-51440000D01*
X28060000Y-51042929D02*
X28060000Y-51440000D01*
X27170000Y-51440000D02*
X27170000Y-54100000D01*
X26280000Y-54100000D02*
X26280000Y-60100000D01*
X26280000Y-60100000D02*
X25520000Y-60100000D01*
X25520000Y-60100000D02*
X25520000Y-54100000D01*
X26280000Y-51042929D02*
X26280000Y-51440000D01*
X25520000Y-51042929D02*
X25520000Y-51440000D01*
X64000000Y-48730000D02*
X65270000Y-48730000D01*
X65270000Y-48730000D02*
X65270000Y-50000000D01*
X73837221Y-41490000D02*
X74162779Y-41490000D01*
X73837221Y-42510000D02*
X74162779Y-42510000D01*
X73837221Y-38510000D02*
X74162779Y-38510000D01*
X73837221Y-37490000D02*
X74162779Y-37490000D01*
X73837221Y-33490000D02*
X74162779Y-33490000D01*
X73837221Y-34510000D02*
X74162779Y-34510000D01*
X38889721Y-33530000D02*
X39215279Y-33530000D01*
X38889721Y-32510000D02*
X39215279Y-32510000D01*
X28915000Y-45720000D02*
X28915000Y-42795000D01*
X28915000Y-45720000D02*
X28915000Y-47220000D01*
X25695000Y-45720000D02*
X25695000Y-44220000D01*
X25695000Y-45720000D02*
X25695000Y-47220000D01*
X30775000Y-45720000D02*
X30775000Y-47220000D01*
X30775000Y-45720000D02*
X30775000Y-44220000D01*
X33995000Y-45720000D02*
X33995000Y-47220000D01*
X33995000Y-45720000D02*
X33995000Y-42795000D01*
X35855000Y-45720000D02*
X35855000Y-47220000D01*
X35855000Y-45720000D02*
X35855000Y-44220000D01*
X39075000Y-45720000D02*
X39075000Y-47220000D01*
X39075000Y-45720000D02*
X39075000Y-42795000D01*
X44155000Y-45720000D02*
X44155000Y-42795000D01*
X44155000Y-45720000D02*
X44155000Y-47220000D01*
X40935000Y-45720000D02*
X40935000Y-44220000D01*
X40935000Y-45720000D02*
X40935000Y-47220000D01*
X46015000Y-45720000D02*
X46015000Y-47220000D01*
X46015000Y-45720000D02*
X46015000Y-44220000D01*
X49235000Y-45720000D02*
X49235000Y-47220000D01*
X49235000Y-45720000D02*
X49235000Y-42795000D01*
X51095000Y-45720000D02*
X51095000Y-47220000D01*
X51095000Y-45720000D02*
X51095000Y-44220000D01*
X54315000Y-45720000D02*
X54315000Y-47220000D01*
X54315000Y-45720000D02*
X54315000Y-42795000D01*
X59395000Y-45720000D02*
X59395000Y-42795000D01*
X59395000Y-45720000D02*
X59395000Y-47220000D01*
X56175000Y-45720000D02*
X56175000Y-44220000D01*
X56175000Y-45720000D02*
X56175000Y-47220000D01*
X64475000Y-45720000D02*
X64475000Y-42795000D01*
X64475000Y-45720000D02*
X64475000Y-47220000D01*
X61255000Y-45720000D02*
X61255000Y-44220000D01*
X61255000Y-45720000D02*
X61255000Y-47220000D01*
X73300000Y-45000000D02*
G75*
G02X72600000Y-44300000I0J700000D01*
G01*
X72600000Y-43700000D02*
G75*
G02X73300000Y-43000000I700000J0D01*
G01*
X74700000Y-43000000D02*
G75*
G02X75400000Y-43700000I0J-700000D01*
G01*
X75400000Y-44300000D02*
G75*
G02X74700000Y-45000000I-700000J0D01*
G01*
X75400000Y-43700000D02*
X75400000Y-44300000D01*
X73300000Y-43000000D02*
X74700000Y-43000000D01*
X72600000Y-44300000D02*
X72600000Y-43700000D01*
X74700000Y-45000000D02*
X73300000Y-45000000D01*
X74700000Y-41000000D02*
X73300000Y-41000000D01*
X72600000Y-40300000D02*
X72600000Y-39700000D01*
X73300000Y-39000000D02*
X74700000Y-39000000D01*
X75400000Y-39700000D02*
X75400000Y-40300000D01*
X75400000Y-40300000D02*
G75*
G02X74700000Y-41000000I-700000J0D01*
G01*
X74700000Y-39000000D02*
G75*
G02X75400000Y-39700000I0J-700000D01*
G01*
X72600000Y-39700000D02*
G75*
G02X73300000Y-39000000I700000J0D01*
G01*
X73300000Y-41000000D02*
G75*
G02X72600000Y-40300000I0J700000D01*
G01*
X73300000Y-37000000D02*
G75*
G02X72600000Y-36300000I0J700000D01*
G01*
X72600000Y-35700000D02*
G75*
G02X73300000Y-35000000I700000J0D01*
G01*
X74700000Y-35000000D02*
G75*
G02X75400000Y-35700000I0J-700000D01*
G01*
X75400000Y-36300000D02*
G75*
G02X74700000Y-37000000I-700000J0D01*
G01*
X75400000Y-35700000D02*
X75400000Y-36300000D01*
X73300000Y-35000000D02*
X74700000Y-35000000D01*
X72600000Y-36300000D02*
X72600000Y-35700000D01*
X74700000Y-37000000D02*
X73300000Y-37000000D01*
X29335000Y-39842221D02*
X29335000Y-40167779D01*
X30355000Y-39842221D02*
X30355000Y-40167779D01*
X25275000Y-39842221D02*
X25275000Y-40167779D01*
X24255000Y-39842221D02*
X24255000Y-40167779D01*
X32510000Y-41112221D02*
X32510000Y-41437779D01*
X33530000Y-41112221D02*
X33530000Y-41437779D01*
X32260000Y-41112221D02*
X32260000Y-41437779D01*
X31240000Y-41112221D02*
X31240000Y-41437779D01*
X37590000Y-41112221D02*
X37590000Y-41437779D01*
X38610000Y-41112221D02*
X38610000Y-41437779D01*
X37340000Y-41112221D02*
X37340000Y-41437779D01*
X36320000Y-41112221D02*
X36320000Y-41437779D01*
X43690000Y-41112221D02*
X43690000Y-41437779D01*
X42670000Y-41112221D02*
X42670000Y-41437779D01*
X41400000Y-41112221D02*
X41400000Y-41437779D01*
X42420000Y-41112221D02*
X42420000Y-41437779D01*
X47750000Y-41112221D02*
X47750000Y-41437779D01*
X48770000Y-41112221D02*
X48770000Y-41437779D01*
X46480000Y-41112221D02*
X46480000Y-41437779D01*
X47500000Y-41112221D02*
X47500000Y-41437779D01*
X53850000Y-41112221D02*
X53850000Y-41437779D01*
X52830000Y-41112221D02*
X52830000Y-41437779D01*
X52580000Y-41112221D02*
X52580000Y-41437779D01*
X51560000Y-41112221D02*
X51560000Y-41437779D01*
X57910000Y-41112221D02*
X57910000Y-41437779D01*
X58930000Y-41112221D02*
X58930000Y-41437779D01*
X57660000Y-41112221D02*
X57660000Y-41437779D01*
X56640000Y-41112221D02*
X56640000Y-41437779D01*
X62990000Y-41112221D02*
X62990000Y-41437779D01*
X64010000Y-41112221D02*
X64010000Y-41437779D01*
X62740000Y-41112221D02*
X62740000Y-41437779D01*
X61720000Y-41112221D02*
X61720000Y-41437779D01*
X25975000Y-41017500D02*
X28635000Y-41017500D01*
X25975000Y-33337500D02*
X25975000Y-41017500D01*
X28635000Y-33337500D02*
X28635000Y-41017500D01*
X25975000Y-33337500D02*
X28635000Y-33337500D01*
X25975000Y-32067500D02*
X25975000Y-30737500D01*
X25975000Y-30737500D02*
X27305000Y-30737500D01*
X25040000Y-34892064D02*
X25040000Y-33687936D01*
X23220000Y-34892064D02*
X23220000Y-33687936D01*
X24255000Y-43977779D02*
X24255000Y-43652221D01*
X25275000Y-43977779D02*
X25275000Y-43652221D01*
D12*
X18603800Y-47829400D02*
X16803800Y-47829400D01*
X20803800Y-44729400D02*
X20803800Y-43829400D01*
X20803800Y-44729400D02*
X20803800Y-45629400D01*
X14603800Y-44729400D02*
X14603800Y-43829400D01*
X14603800Y-44729400D02*
X14603800Y-45629400D01*
X18603800Y-41629400D02*
X16903800Y-41629400D01*
X15775000Y-37170000D02*
X15775000Y-37645000D01*
X15775000Y-37645000D02*
X16075000Y-37970000D01*
X16075000Y-37970000D02*
X16075000Y-38165000D01*
X22325000Y-37495000D02*
X22325000Y-37970000D01*
X22325000Y-37970000D02*
X21875000Y-37970000D01*
X16275000Y-34420000D02*
X15775000Y-34420000D01*
X15775000Y-34420000D02*
X15775000Y-34820000D01*
X21950000Y-34420000D02*
X22325000Y-34420000D01*
X22325000Y-34420000D02*
X22325000Y-34720000D01*
D11*
X13327142Y-31789642D02*
X13279523Y-31837261D01*
X13136666Y-31884880D01*
X13041428Y-31884880D01*
X12898571Y-31837261D01*
X12803333Y-31742023D01*
X12755714Y-31646785D01*
X12708095Y-31456309D01*
X12708095Y-31313452D01*
X12755714Y-31122976D01*
X12803333Y-31027738D01*
X12898571Y-30932500D01*
X13041428Y-30884880D01*
X13136666Y-30884880D01*
X13279523Y-30932500D01*
X13327142Y-30980119D01*
X13708095Y-30980119D02*
X13755714Y-30932500D01*
X13850952Y-30884880D01*
X14089047Y-30884880D01*
X14184285Y-30932500D01*
X14231904Y-30980119D01*
X14279523Y-31075357D01*
X14279523Y-31170595D01*
X14231904Y-31313452D01*
X13660476Y-31884880D01*
X14279523Y-31884880D01*
X14898571Y-30884880D02*
X14993809Y-30884880D01*
X15089047Y-30932500D01*
X15136666Y-30980119D01*
X15184285Y-31075357D01*
X15231904Y-31265833D01*
X15231904Y-31503928D01*
X15184285Y-31694404D01*
X15136666Y-31789642D01*
X15089047Y-31837261D01*
X14993809Y-31884880D01*
X14898571Y-31884880D01*
X14803333Y-31837261D01*
X14755714Y-31789642D01*
X14708095Y-31694404D01*
X14660476Y-31503928D01*
X14660476Y-31265833D01*
X14708095Y-31075357D01*
X14755714Y-30980119D01*
X14803333Y-30932500D01*
X14898571Y-30884880D01*
X29678333Y-42267142D02*
X29630714Y-42314761D01*
X29487857Y-42362380D01*
X29392619Y-42362380D01*
X29249761Y-42314761D01*
X29154523Y-42219523D01*
X29106904Y-42124285D01*
X29059285Y-41933809D01*
X29059285Y-41790952D01*
X29106904Y-41600476D01*
X29154523Y-41505238D01*
X29249761Y-41410000D01*
X29392619Y-41362380D01*
X29487857Y-41362380D01*
X29630714Y-41410000D01*
X29678333Y-41457619D01*
X30011666Y-41362380D02*
X30630714Y-41362380D01*
X30297380Y-41743333D01*
X30440238Y-41743333D01*
X30535476Y-41790952D01*
X30583095Y-41838571D01*
X30630714Y-41933809D01*
X30630714Y-42171904D01*
X30583095Y-42267142D01*
X30535476Y-42314761D01*
X30440238Y-42362380D01*
X30154523Y-42362380D01*
X30059285Y-42314761D01*
X30011666Y-42267142D01*
X39878095Y-30884880D02*
X39878095Y-31694404D01*
X39925714Y-31789642D01*
X39973333Y-31837261D01*
X40068571Y-31884880D01*
X40259047Y-31884880D01*
X40354285Y-31837261D01*
X40401904Y-31789642D01*
X40449523Y-31694404D01*
X40449523Y-30884880D01*
X41449523Y-31884880D02*
X40878095Y-31884880D01*
X41163809Y-31884880D02*
X41163809Y-30884880D01*
X41068571Y-31027738D01*
X40973333Y-31122976D01*
X40878095Y-31170595D01*
X53490833Y-33377142D02*
X53443214Y-33424761D01*
X53300357Y-33472380D01*
X53205119Y-33472380D01*
X53062261Y-33424761D01*
X52967023Y-33329523D01*
X52919404Y-33234285D01*
X52871785Y-33043809D01*
X52871785Y-32900952D01*
X52919404Y-32710476D01*
X52967023Y-32615238D01*
X53062261Y-32520000D01*
X53205119Y-32472380D01*
X53300357Y-32472380D01*
X53443214Y-32520000D01*
X53490833Y-32567619D01*
X54443214Y-33472380D02*
X53871785Y-33472380D01*
X54157500Y-33472380D02*
X54157500Y-32472380D01*
X54062261Y-32615238D01*
X53967023Y-32710476D01*
X53871785Y-32758095D01*
X53490833Y-31789642D02*
X53443214Y-31837261D01*
X53300357Y-31884880D01*
X53205119Y-31884880D01*
X53062261Y-31837261D01*
X52967023Y-31742023D01*
X52919404Y-31646785D01*
X52871785Y-31456309D01*
X52871785Y-31313452D01*
X52919404Y-31122976D01*
X52967023Y-31027738D01*
X53062261Y-30932500D01*
X53205119Y-30884880D01*
X53300357Y-30884880D01*
X53443214Y-30932500D01*
X53490833Y-30980119D01*
X53871785Y-30980119D02*
X53919404Y-30932500D01*
X54014642Y-30884880D01*
X54252738Y-30884880D01*
X54347976Y-30932500D01*
X54395595Y-30980119D01*
X54443214Y-31075357D01*
X54443214Y-31170595D01*
X54395595Y-31313452D01*
X53824166Y-31884880D01*
X54443214Y-31884880D01*
X34758333Y-42267142D02*
X34710714Y-42314761D01*
X34567857Y-42362380D01*
X34472619Y-42362380D01*
X34329761Y-42314761D01*
X34234523Y-42219523D01*
X34186904Y-42124285D01*
X34139285Y-41933809D01*
X34139285Y-41790952D01*
X34186904Y-41600476D01*
X34234523Y-41505238D01*
X34329761Y-41410000D01*
X34472619Y-41362380D01*
X34567857Y-41362380D01*
X34710714Y-41410000D01*
X34758333Y-41457619D01*
X35615476Y-41695714D02*
X35615476Y-42362380D01*
X35377380Y-41314761D02*
X35139285Y-42029047D01*
X35758333Y-42029047D01*
X39838333Y-42267142D02*
X39790714Y-42314761D01*
X39647857Y-42362380D01*
X39552619Y-42362380D01*
X39409761Y-42314761D01*
X39314523Y-42219523D01*
X39266904Y-42124285D01*
X39219285Y-41933809D01*
X39219285Y-41790952D01*
X39266904Y-41600476D01*
X39314523Y-41505238D01*
X39409761Y-41410000D01*
X39552619Y-41362380D01*
X39647857Y-41362380D01*
X39790714Y-41410000D01*
X39838333Y-41457619D01*
X40743095Y-41362380D02*
X40266904Y-41362380D01*
X40219285Y-41838571D01*
X40266904Y-41790952D01*
X40362142Y-41743333D01*
X40600238Y-41743333D01*
X40695476Y-41790952D01*
X40743095Y-41838571D01*
X40790714Y-41933809D01*
X40790714Y-42171904D01*
X40743095Y-42267142D01*
X40695476Y-42314761D01*
X40600238Y-42362380D01*
X40362142Y-42362380D01*
X40266904Y-42314761D01*
X40219285Y-42267142D01*
X24403333Y-51797142D02*
X24355714Y-51844761D01*
X24212857Y-51892380D01*
X24117619Y-51892380D01*
X23974761Y-51844761D01*
X23879523Y-51749523D01*
X23831904Y-51654285D01*
X23784285Y-51463809D01*
X23784285Y-51320952D01*
X23831904Y-51130476D01*
X23879523Y-51035238D01*
X23974761Y-50940000D01*
X24117619Y-50892380D01*
X24212857Y-50892380D01*
X24355714Y-50940000D01*
X24403333Y-50987619D01*
X25260476Y-50892380D02*
X25070000Y-50892380D01*
X24974761Y-50940000D01*
X24927142Y-50987619D01*
X24831904Y-51130476D01*
X24784285Y-51320952D01*
X24784285Y-51701904D01*
X24831904Y-51797142D01*
X24879523Y-51844761D01*
X24974761Y-51892380D01*
X25165238Y-51892380D01*
X25260476Y-51844761D01*
X25308095Y-51797142D01*
X25355714Y-51701904D01*
X25355714Y-51463809D01*
X25308095Y-51368571D01*
X25260476Y-51320952D01*
X25165238Y-51273333D01*
X24974761Y-51273333D01*
X24879523Y-51320952D01*
X24831904Y-51368571D01*
X24784285Y-51463809D01*
X29543333Y-51797142D02*
X29495714Y-51844761D01*
X29352857Y-51892380D01*
X29257619Y-51892380D01*
X29114761Y-51844761D01*
X29019523Y-51749523D01*
X28971904Y-51654285D01*
X28924285Y-51463809D01*
X28924285Y-51320952D01*
X28971904Y-51130476D01*
X29019523Y-51035238D01*
X29114761Y-50940000D01*
X29257619Y-50892380D01*
X29352857Y-50892380D01*
X29495714Y-50940000D01*
X29543333Y-50987619D01*
X29876666Y-50892380D02*
X30543333Y-50892380D01*
X30114761Y-51892380D01*
X34623333Y-51797142D02*
X34575714Y-51844761D01*
X34432857Y-51892380D01*
X34337619Y-51892380D01*
X34194761Y-51844761D01*
X34099523Y-51749523D01*
X34051904Y-51654285D01*
X34004285Y-51463809D01*
X34004285Y-51320952D01*
X34051904Y-51130476D01*
X34099523Y-51035238D01*
X34194761Y-50940000D01*
X34337619Y-50892380D01*
X34432857Y-50892380D01*
X34575714Y-50940000D01*
X34623333Y-50987619D01*
X35194761Y-51320952D02*
X35099523Y-51273333D01*
X35051904Y-51225714D01*
X35004285Y-51130476D01*
X35004285Y-51082857D01*
X35051904Y-50987619D01*
X35099523Y-50940000D01*
X35194761Y-50892380D01*
X35385238Y-50892380D01*
X35480476Y-50940000D01*
X35528095Y-50987619D01*
X35575714Y-51082857D01*
X35575714Y-51130476D01*
X35528095Y-51225714D01*
X35480476Y-51273333D01*
X35385238Y-51320952D01*
X35194761Y-51320952D01*
X35099523Y-51368571D01*
X35051904Y-51416190D01*
X35004285Y-51511428D01*
X35004285Y-51701904D01*
X35051904Y-51797142D01*
X35099523Y-51844761D01*
X35194761Y-51892380D01*
X35385238Y-51892380D01*
X35480476Y-51844761D01*
X35528095Y-51797142D01*
X35575714Y-51701904D01*
X35575714Y-51511428D01*
X35528095Y-51416190D01*
X35480476Y-51368571D01*
X35385238Y-51320952D01*
X44918333Y-42267142D02*
X44870714Y-42314761D01*
X44727857Y-42362380D01*
X44632619Y-42362380D01*
X44489761Y-42314761D01*
X44394523Y-42219523D01*
X44346904Y-42124285D01*
X44299285Y-41933809D01*
X44299285Y-41790952D01*
X44346904Y-41600476D01*
X44394523Y-41505238D01*
X44489761Y-41410000D01*
X44632619Y-41362380D01*
X44727857Y-41362380D01*
X44870714Y-41410000D01*
X44918333Y-41457619D01*
X45394523Y-42362380D02*
X45585000Y-42362380D01*
X45680238Y-42314761D01*
X45727857Y-42267142D01*
X45823095Y-42124285D01*
X45870714Y-41933809D01*
X45870714Y-41552857D01*
X45823095Y-41457619D01*
X45775476Y-41410000D01*
X45680238Y-41362380D01*
X45489761Y-41362380D01*
X45394523Y-41410000D01*
X45346904Y-41457619D01*
X45299285Y-41552857D01*
X45299285Y-41790952D01*
X45346904Y-41886190D01*
X45394523Y-41933809D01*
X45489761Y-41981428D01*
X45680238Y-41981428D01*
X45775476Y-41933809D01*
X45823095Y-41886190D01*
X45870714Y-41790952D01*
X49522142Y-42267142D02*
X49474523Y-42314761D01*
X49331666Y-42362380D01*
X49236428Y-42362380D01*
X49093571Y-42314761D01*
X48998333Y-42219523D01*
X48950714Y-42124285D01*
X48903095Y-41933809D01*
X48903095Y-41790952D01*
X48950714Y-41600476D01*
X48998333Y-41505238D01*
X49093571Y-41410000D01*
X49236428Y-41362380D01*
X49331666Y-41362380D01*
X49474523Y-41410000D01*
X49522142Y-41457619D01*
X50474523Y-42362380D02*
X49903095Y-42362380D01*
X50188809Y-42362380D02*
X50188809Y-41362380D01*
X50093571Y-41505238D01*
X49998333Y-41600476D01*
X49903095Y-41648095D01*
X51093571Y-41362380D02*
X51188809Y-41362380D01*
X51284047Y-41410000D01*
X51331666Y-41457619D01*
X51379285Y-41552857D01*
X51426904Y-41743333D01*
X51426904Y-41981428D01*
X51379285Y-42171904D01*
X51331666Y-42267142D01*
X51284047Y-42314761D01*
X51188809Y-42362380D01*
X51093571Y-42362380D01*
X50998333Y-42314761D01*
X50950714Y-42267142D01*
X50903095Y-42171904D01*
X50855476Y-41981428D01*
X50855476Y-41743333D01*
X50903095Y-41552857D01*
X50950714Y-41457619D01*
X50998333Y-41410000D01*
X51093571Y-41362380D01*
X54602142Y-42267142D02*
X54554523Y-42314761D01*
X54411666Y-42362380D01*
X54316428Y-42362380D01*
X54173571Y-42314761D01*
X54078333Y-42219523D01*
X54030714Y-42124285D01*
X53983095Y-41933809D01*
X53983095Y-41790952D01*
X54030714Y-41600476D01*
X54078333Y-41505238D01*
X54173571Y-41410000D01*
X54316428Y-41362380D01*
X54411666Y-41362380D01*
X54554523Y-41410000D01*
X54602142Y-41457619D01*
X55554523Y-42362380D02*
X54983095Y-42362380D01*
X55268809Y-42362380D02*
X55268809Y-41362380D01*
X55173571Y-41505238D01*
X55078333Y-41600476D01*
X54983095Y-41648095D01*
X56506904Y-42362380D02*
X55935476Y-42362380D01*
X56221190Y-42362380D02*
X56221190Y-41362380D01*
X56125952Y-41505238D01*
X56030714Y-41600476D01*
X55935476Y-41648095D01*
X39227142Y-51797142D02*
X39179523Y-51844761D01*
X39036666Y-51892380D01*
X38941428Y-51892380D01*
X38798571Y-51844761D01*
X38703333Y-51749523D01*
X38655714Y-51654285D01*
X38608095Y-51463809D01*
X38608095Y-51320952D01*
X38655714Y-51130476D01*
X38703333Y-51035238D01*
X38798571Y-50940000D01*
X38941428Y-50892380D01*
X39036666Y-50892380D01*
X39179523Y-50940000D01*
X39227142Y-50987619D01*
X40179523Y-51892380D02*
X39608095Y-51892380D01*
X39893809Y-51892380D02*
X39893809Y-50892380D01*
X39798571Y-51035238D01*
X39703333Y-51130476D01*
X39608095Y-51178095D01*
X40560476Y-50987619D02*
X40608095Y-50940000D01*
X40703333Y-50892380D01*
X40941428Y-50892380D01*
X41036666Y-50940000D01*
X41084285Y-50987619D01*
X41131904Y-51082857D01*
X41131904Y-51178095D01*
X41084285Y-51320952D01*
X40512857Y-51892380D01*
X41131904Y-51892380D01*
X44307142Y-51797142D02*
X44259523Y-51844761D01*
X44116666Y-51892380D01*
X44021428Y-51892380D01*
X43878571Y-51844761D01*
X43783333Y-51749523D01*
X43735714Y-51654285D01*
X43688095Y-51463809D01*
X43688095Y-51320952D01*
X43735714Y-51130476D01*
X43783333Y-51035238D01*
X43878571Y-50940000D01*
X44021428Y-50892380D01*
X44116666Y-50892380D01*
X44259523Y-50940000D01*
X44307142Y-50987619D01*
X45259523Y-51892380D02*
X44688095Y-51892380D01*
X44973809Y-51892380D02*
X44973809Y-50892380D01*
X44878571Y-51035238D01*
X44783333Y-51130476D01*
X44688095Y-51178095D01*
X45592857Y-50892380D02*
X46211904Y-50892380D01*
X45878571Y-51273333D01*
X46021428Y-51273333D01*
X46116666Y-51320952D01*
X46164285Y-51368571D01*
X46211904Y-51463809D01*
X46211904Y-51701904D01*
X46164285Y-51797142D01*
X46116666Y-51844761D01*
X46021428Y-51892380D01*
X45735714Y-51892380D01*
X45640476Y-51844761D01*
X45592857Y-51797142D01*
X49387142Y-51797142D02*
X49339523Y-51844761D01*
X49196666Y-51892380D01*
X49101428Y-51892380D01*
X48958571Y-51844761D01*
X48863333Y-51749523D01*
X48815714Y-51654285D01*
X48768095Y-51463809D01*
X48768095Y-51320952D01*
X48815714Y-51130476D01*
X48863333Y-51035238D01*
X48958571Y-50940000D01*
X49101428Y-50892380D01*
X49196666Y-50892380D01*
X49339523Y-50940000D01*
X49387142Y-50987619D01*
X50339523Y-51892380D02*
X49768095Y-51892380D01*
X50053809Y-51892380D02*
X50053809Y-50892380D01*
X49958571Y-51035238D01*
X49863333Y-51130476D01*
X49768095Y-51178095D01*
X51196666Y-51225714D02*
X51196666Y-51892380D01*
X50958571Y-50844761D02*
X50720476Y-51559047D01*
X51339523Y-51559047D01*
X59682142Y-42267142D02*
X59634523Y-42314761D01*
X59491666Y-42362380D01*
X59396428Y-42362380D01*
X59253571Y-42314761D01*
X59158333Y-42219523D01*
X59110714Y-42124285D01*
X59063095Y-41933809D01*
X59063095Y-41790952D01*
X59110714Y-41600476D01*
X59158333Y-41505238D01*
X59253571Y-41410000D01*
X59396428Y-41362380D01*
X59491666Y-41362380D01*
X59634523Y-41410000D01*
X59682142Y-41457619D01*
X60634523Y-42362380D02*
X60063095Y-42362380D01*
X60348809Y-42362380D02*
X60348809Y-41362380D01*
X60253571Y-41505238D01*
X60158333Y-41600476D01*
X60063095Y-41648095D01*
X61539285Y-41362380D02*
X61063095Y-41362380D01*
X61015476Y-41838571D01*
X61063095Y-41790952D01*
X61158333Y-41743333D01*
X61396428Y-41743333D01*
X61491666Y-41790952D01*
X61539285Y-41838571D01*
X61586904Y-41933809D01*
X61586904Y-42171904D01*
X61539285Y-42267142D01*
X61491666Y-42314761D01*
X61396428Y-42362380D01*
X61158333Y-42362380D01*
X61063095Y-42314761D01*
X61015476Y-42267142D01*
X64762142Y-42267142D02*
X64714523Y-42314761D01*
X64571666Y-42362380D01*
X64476428Y-42362380D01*
X64333571Y-42314761D01*
X64238333Y-42219523D01*
X64190714Y-42124285D01*
X64143095Y-41933809D01*
X64143095Y-41790952D01*
X64190714Y-41600476D01*
X64238333Y-41505238D01*
X64333571Y-41410000D01*
X64476428Y-41362380D01*
X64571666Y-41362380D01*
X64714523Y-41410000D01*
X64762142Y-41457619D01*
X65714523Y-42362380D02*
X65143095Y-42362380D01*
X65428809Y-42362380D02*
X65428809Y-41362380D01*
X65333571Y-41505238D01*
X65238333Y-41600476D01*
X65143095Y-41648095D01*
X66571666Y-41362380D02*
X66381190Y-41362380D01*
X66285952Y-41410000D01*
X66238333Y-41457619D01*
X66143095Y-41600476D01*
X66095476Y-41790952D01*
X66095476Y-42171904D01*
X66143095Y-42267142D01*
X66190714Y-42314761D01*
X66285952Y-42362380D01*
X66476428Y-42362380D01*
X66571666Y-42314761D01*
X66619285Y-42267142D01*
X66666904Y-42171904D01*
X66666904Y-41933809D01*
X66619285Y-41838571D01*
X66571666Y-41790952D01*
X66476428Y-41743333D01*
X66285952Y-41743333D01*
X66190714Y-41790952D01*
X66143095Y-41838571D01*
X66095476Y-41933809D01*
X54172142Y-48267857D02*
X54219761Y-48315476D01*
X54267380Y-48458333D01*
X54267380Y-48553571D01*
X54219761Y-48696428D01*
X54124523Y-48791666D01*
X54029285Y-48839285D01*
X53838809Y-48886904D01*
X53695952Y-48886904D01*
X53505476Y-48839285D01*
X53410238Y-48791666D01*
X53315000Y-48696428D01*
X53267380Y-48553571D01*
X53267380Y-48458333D01*
X53315000Y-48315476D01*
X53362619Y-48267857D01*
X54267380Y-47315476D02*
X54267380Y-47886904D01*
X54267380Y-47601190D02*
X53267380Y-47601190D01*
X53410238Y-47696428D01*
X53505476Y-47791666D01*
X53553095Y-47886904D01*
X53267380Y-46982142D02*
X53267380Y-46315476D01*
X54267380Y-46744047D01*
X59547142Y-51797142D02*
X59499523Y-51844761D01*
X59356666Y-51892380D01*
X59261428Y-51892380D01*
X59118571Y-51844761D01*
X59023333Y-51749523D01*
X58975714Y-51654285D01*
X58928095Y-51463809D01*
X58928095Y-51320952D01*
X58975714Y-51130476D01*
X59023333Y-51035238D01*
X59118571Y-50940000D01*
X59261428Y-50892380D01*
X59356666Y-50892380D01*
X59499523Y-50940000D01*
X59547142Y-50987619D01*
X60499523Y-51892380D02*
X59928095Y-51892380D01*
X60213809Y-51892380D02*
X60213809Y-50892380D01*
X60118571Y-51035238D01*
X60023333Y-51130476D01*
X59928095Y-51178095D01*
X61070952Y-51320952D02*
X60975714Y-51273333D01*
X60928095Y-51225714D01*
X60880476Y-51130476D01*
X60880476Y-51082857D01*
X60928095Y-50987619D01*
X60975714Y-50940000D01*
X61070952Y-50892380D01*
X61261428Y-50892380D01*
X61356666Y-50940000D01*
X61404285Y-50987619D01*
X61451904Y-51082857D01*
X61451904Y-51130476D01*
X61404285Y-51225714D01*
X61356666Y-51273333D01*
X61261428Y-51320952D01*
X61070952Y-51320952D01*
X60975714Y-51368571D01*
X60928095Y-51416190D01*
X60880476Y-51511428D01*
X60880476Y-51701904D01*
X60928095Y-51797142D01*
X60975714Y-51844761D01*
X61070952Y-51892380D01*
X61261428Y-51892380D01*
X61356666Y-51844761D01*
X61404285Y-51797142D01*
X61451904Y-51701904D01*
X61451904Y-51511428D01*
X61404285Y-51416190D01*
X61356666Y-51368571D01*
X61261428Y-51320952D01*
X66341666Y-52474880D02*
X66341666Y-53189166D01*
X66294047Y-53332023D01*
X66198809Y-53427261D01*
X66055952Y-53474880D01*
X65960714Y-53474880D01*
X66722619Y-52474880D02*
X67341666Y-52474880D01*
X67008333Y-52855833D01*
X67151190Y-52855833D01*
X67246428Y-52903452D01*
X67294047Y-52951071D01*
X67341666Y-53046309D01*
X67341666Y-53284404D01*
X67294047Y-53379642D01*
X67246428Y-53427261D01*
X67151190Y-53474880D01*
X66865476Y-53474880D01*
X66770238Y-53427261D01*
X66722619Y-53379642D01*
X70318333Y-42362380D02*
X69985000Y-41886190D01*
X69746904Y-42362380D02*
X69746904Y-41362380D01*
X70127857Y-41362380D01*
X70223095Y-41410000D01*
X70270714Y-41457619D01*
X70318333Y-41552857D01*
X70318333Y-41695714D01*
X70270714Y-41790952D01*
X70223095Y-41838571D01*
X70127857Y-41886190D01*
X69746904Y-41886190D01*
X71270714Y-42362380D02*
X70699285Y-42362380D01*
X70985000Y-42362380D02*
X70985000Y-41362380D01*
X70889761Y-41505238D01*
X70794523Y-41600476D01*
X70699285Y-41648095D01*
X70318333Y-38552380D02*
X69985000Y-38076190D01*
X69746904Y-38552380D02*
X69746904Y-37552380D01*
X70127857Y-37552380D01*
X70223095Y-37600000D01*
X70270714Y-37647619D01*
X70318333Y-37742857D01*
X70318333Y-37885714D01*
X70270714Y-37980952D01*
X70223095Y-38028571D01*
X70127857Y-38076190D01*
X69746904Y-38076190D01*
X70699285Y-37647619D02*
X70746904Y-37600000D01*
X70842142Y-37552380D01*
X71080238Y-37552380D01*
X71175476Y-37600000D01*
X71223095Y-37647619D01*
X71270714Y-37742857D01*
X71270714Y-37838095D01*
X71223095Y-37980952D01*
X70651666Y-38552380D01*
X71270714Y-38552380D01*
X70318333Y-34424880D02*
X69985000Y-33948690D01*
X69746904Y-34424880D02*
X69746904Y-33424880D01*
X70127857Y-33424880D01*
X70223095Y-33472500D01*
X70270714Y-33520119D01*
X70318333Y-33615357D01*
X70318333Y-33758214D01*
X70270714Y-33853452D01*
X70223095Y-33901071D01*
X70127857Y-33948690D01*
X69746904Y-33948690D01*
X70651666Y-33424880D02*
X71270714Y-33424880D01*
X70937380Y-33805833D01*
X71080238Y-33805833D01*
X71175476Y-33853452D01*
X71223095Y-33901071D01*
X71270714Y-33996309D01*
X71270714Y-34234404D01*
X71223095Y-34329642D01*
X71175476Y-34377261D01*
X71080238Y-34424880D01*
X70794523Y-34424880D01*
X70699285Y-34377261D01*
X70651666Y-34329642D01*
X36345833Y-33472380D02*
X36012500Y-32996190D01*
X35774404Y-33472380D02*
X35774404Y-32472380D01*
X36155357Y-32472380D01*
X36250595Y-32520000D01*
X36298214Y-32567619D01*
X36345833Y-32662857D01*
X36345833Y-32805714D01*
X36298214Y-32900952D01*
X36250595Y-32948571D01*
X36155357Y-32996190D01*
X35774404Y-32996190D01*
X37202976Y-32805714D02*
X37202976Y-33472380D01*
X36964880Y-32424761D02*
X36726785Y-33139047D01*
X37345833Y-33139047D01*
X28993095Y-45172380D02*
X28993095Y-45981904D01*
X29040714Y-46077142D01*
X29088333Y-46124761D01*
X29183571Y-46172380D01*
X29374047Y-46172380D01*
X29469285Y-46124761D01*
X29516904Y-46077142D01*
X29564523Y-45981904D01*
X29564523Y-45172380D01*
X29993095Y-45267619D02*
X30040714Y-45220000D01*
X30135952Y-45172380D01*
X30374047Y-45172380D01*
X30469285Y-45220000D01*
X30516904Y-45267619D01*
X30564523Y-45362857D01*
X30564523Y-45458095D01*
X30516904Y-45600952D01*
X29945476Y-46172380D01*
X30564523Y-46172380D01*
X34073095Y-45172380D02*
X34073095Y-45981904D01*
X34120714Y-46077142D01*
X34168333Y-46124761D01*
X34263571Y-46172380D01*
X34454047Y-46172380D01*
X34549285Y-46124761D01*
X34596904Y-46077142D01*
X34644523Y-45981904D01*
X34644523Y-45172380D01*
X35025476Y-45172380D02*
X35644523Y-45172380D01*
X35311190Y-45553333D01*
X35454047Y-45553333D01*
X35549285Y-45600952D01*
X35596904Y-45648571D01*
X35644523Y-45743809D01*
X35644523Y-45981904D01*
X35596904Y-46077142D01*
X35549285Y-46124761D01*
X35454047Y-46172380D01*
X35168333Y-46172380D01*
X35073095Y-46124761D01*
X35025476Y-46077142D01*
X39153095Y-45172380D02*
X39153095Y-45981904D01*
X39200714Y-46077142D01*
X39248333Y-46124761D01*
X39343571Y-46172380D01*
X39534047Y-46172380D01*
X39629285Y-46124761D01*
X39676904Y-46077142D01*
X39724523Y-45981904D01*
X39724523Y-45172380D01*
X40629285Y-45505714D02*
X40629285Y-46172380D01*
X40391190Y-45124761D02*
X40153095Y-45839047D01*
X40772142Y-45839047D01*
X44233095Y-45172380D02*
X44233095Y-45981904D01*
X44280714Y-46077142D01*
X44328333Y-46124761D01*
X44423571Y-46172380D01*
X44614047Y-46172380D01*
X44709285Y-46124761D01*
X44756904Y-46077142D01*
X44804523Y-45981904D01*
X44804523Y-45172380D01*
X45756904Y-45172380D02*
X45280714Y-45172380D01*
X45233095Y-45648571D01*
X45280714Y-45600952D01*
X45375952Y-45553333D01*
X45614047Y-45553333D01*
X45709285Y-45600952D01*
X45756904Y-45648571D01*
X45804523Y-45743809D01*
X45804523Y-45981904D01*
X45756904Y-46077142D01*
X45709285Y-46124761D01*
X45614047Y-46172380D01*
X45375952Y-46172380D01*
X45280714Y-46124761D01*
X45233095Y-46077142D01*
X49313095Y-45172380D02*
X49313095Y-45981904D01*
X49360714Y-46077142D01*
X49408333Y-46124761D01*
X49503571Y-46172380D01*
X49694047Y-46172380D01*
X49789285Y-46124761D01*
X49836904Y-46077142D01*
X49884523Y-45981904D01*
X49884523Y-45172380D01*
X50789285Y-45172380D02*
X50598809Y-45172380D01*
X50503571Y-45220000D01*
X50455952Y-45267619D01*
X50360714Y-45410476D01*
X50313095Y-45600952D01*
X50313095Y-45981904D01*
X50360714Y-46077142D01*
X50408333Y-46124761D01*
X50503571Y-46172380D01*
X50694047Y-46172380D01*
X50789285Y-46124761D01*
X50836904Y-46077142D01*
X50884523Y-45981904D01*
X50884523Y-45743809D01*
X50836904Y-45648571D01*
X50789285Y-45600952D01*
X50694047Y-45553333D01*
X50503571Y-45553333D01*
X50408333Y-45600952D01*
X50360714Y-45648571D01*
X50313095Y-45743809D01*
X54393095Y-45172380D02*
X54393095Y-45981904D01*
X54440714Y-46077142D01*
X54488333Y-46124761D01*
X54583571Y-46172380D01*
X54774047Y-46172380D01*
X54869285Y-46124761D01*
X54916904Y-46077142D01*
X54964523Y-45981904D01*
X54964523Y-45172380D01*
X55345476Y-45172380D02*
X56012142Y-45172380D01*
X55583571Y-46172380D01*
X59473095Y-45172380D02*
X59473095Y-45981904D01*
X59520714Y-46077142D01*
X59568333Y-46124761D01*
X59663571Y-46172380D01*
X59854047Y-46172380D01*
X59949285Y-46124761D01*
X59996904Y-46077142D01*
X60044523Y-45981904D01*
X60044523Y-45172380D01*
X60663571Y-45600952D02*
X60568333Y-45553333D01*
X60520714Y-45505714D01*
X60473095Y-45410476D01*
X60473095Y-45362857D01*
X60520714Y-45267619D01*
X60568333Y-45220000D01*
X60663571Y-45172380D01*
X60854047Y-45172380D01*
X60949285Y-45220000D01*
X60996904Y-45267619D01*
X61044523Y-45362857D01*
X61044523Y-45410476D01*
X60996904Y-45505714D01*
X60949285Y-45553333D01*
X60854047Y-45600952D01*
X60663571Y-45600952D01*
X60568333Y-45648571D01*
X60520714Y-45696190D01*
X60473095Y-45791428D01*
X60473095Y-45981904D01*
X60520714Y-46077142D01*
X60568333Y-46124761D01*
X60663571Y-46172380D01*
X60854047Y-46172380D01*
X60949285Y-46124761D01*
X60996904Y-46077142D01*
X61044523Y-45981904D01*
X61044523Y-45791428D01*
X60996904Y-45696190D01*
X60949285Y-45648571D01*
X60854047Y-45600952D01*
X64553095Y-45172380D02*
X64553095Y-45981904D01*
X64600714Y-46077142D01*
X64648333Y-46124761D01*
X64743571Y-46172380D01*
X64934047Y-46172380D01*
X65029285Y-46124761D01*
X65076904Y-46077142D01*
X65124523Y-45981904D01*
X65124523Y-45172380D01*
X65648333Y-46172380D02*
X65838809Y-46172380D01*
X65934047Y-46124761D01*
X65981666Y-46077142D01*
X66076904Y-45934285D01*
X66124523Y-45743809D01*
X66124523Y-45362857D01*
X66076904Y-45267619D01*
X66029285Y-45220000D01*
X65934047Y-45172380D01*
X65743571Y-45172380D01*
X65648333Y-45220000D01*
X65600714Y-45267619D01*
X65553095Y-45362857D01*
X65553095Y-45600952D01*
X65600714Y-45696190D01*
X65648333Y-45743809D01*
X65743571Y-45791428D01*
X65934047Y-45791428D01*
X66029285Y-45743809D01*
X66076904Y-45696190D01*
X66124523Y-45600952D01*
X70286666Y-43584880D02*
X70286666Y-44299166D01*
X70239047Y-44442023D01*
X70143809Y-44537261D01*
X70000952Y-44584880D01*
X69905714Y-44584880D01*
X70762857Y-44584880D02*
X70762857Y-43584880D01*
X71143809Y-43584880D01*
X71239047Y-43632500D01*
X71286666Y-43680119D01*
X71334285Y-43775357D01*
X71334285Y-43918214D01*
X71286666Y-44013452D01*
X71239047Y-44061071D01*
X71143809Y-44108690D01*
X70762857Y-44108690D01*
X72286666Y-44584880D02*
X71715238Y-44584880D01*
X72000952Y-44584880D02*
X72000952Y-43584880D01*
X71905714Y-43727738D01*
X71810476Y-43822976D01*
X71715238Y-43870595D01*
X70286666Y-39457380D02*
X70286666Y-40171666D01*
X70239047Y-40314523D01*
X70143809Y-40409761D01*
X70000952Y-40457380D01*
X69905714Y-40457380D01*
X70762857Y-40457380D02*
X70762857Y-39457380D01*
X71143809Y-39457380D01*
X71239047Y-39505000D01*
X71286666Y-39552619D01*
X71334285Y-39647857D01*
X71334285Y-39790714D01*
X71286666Y-39885952D01*
X71239047Y-39933571D01*
X71143809Y-39981190D01*
X70762857Y-39981190D01*
X71715238Y-39552619D02*
X71762857Y-39505000D01*
X71858095Y-39457380D01*
X72096190Y-39457380D01*
X72191428Y-39505000D01*
X72239047Y-39552619D01*
X72286666Y-39647857D01*
X72286666Y-39743095D01*
X72239047Y-39885952D01*
X71667619Y-40457380D01*
X72286666Y-40457380D01*
X70286666Y-35647380D02*
X70286666Y-36361666D01*
X70239047Y-36504523D01*
X70143809Y-36599761D01*
X70000952Y-36647380D01*
X69905714Y-36647380D01*
X70762857Y-36647380D02*
X70762857Y-35647380D01*
X71143809Y-35647380D01*
X71239047Y-35695000D01*
X71286666Y-35742619D01*
X71334285Y-35837857D01*
X71334285Y-35980714D01*
X71286666Y-36075952D01*
X71239047Y-36123571D01*
X71143809Y-36171190D01*
X70762857Y-36171190D01*
X71667619Y-35647380D02*
X72286666Y-35647380D01*
X71953333Y-36028333D01*
X72096190Y-36028333D01*
X72191428Y-36075952D01*
X72239047Y-36123571D01*
X72286666Y-36218809D01*
X72286666Y-36456904D01*
X72239047Y-36552142D01*
X72191428Y-36599761D01*
X72096190Y-36647380D01*
X71810476Y-36647380D01*
X71715238Y-36599761D01*
X71667619Y-36552142D01*
X30297380Y-37631666D02*
X29821190Y-37965000D01*
X30297380Y-38203095D02*
X29297380Y-38203095D01*
X29297380Y-37822142D01*
X29345000Y-37726904D01*
X29392619Y-37679285D01*
X29487857Y-37631666D01*
X29630714Y-37631666D01*
X29725952Y-37679285D01*
X29773571Y-37726904D01*
X29821190Y-37822142D01*
X29821190Y-38203095D01*
X29297380Y-36726904D02*
X29297380Y-37203095D01*
X29773571Y-37250714D01*
X29725952Y-37203095D01*
X29678333Y-37107857D01*
X29678333Y-36869761D01*
X29725952Y-36774523D01*
X29773571Y-36726904D01*
X29868809Y-36679285D01*
X30106904Y-36679285D01*
X30202142Y-36726904D01*
X30249761Y-36774523D01*
X30297380Y-36869761D01*
X30297380Y-37107857D01*
X30249761Y-37203095D01*
X30202142Y-37250714D01*
X25217380Y-37631666D02*
X24741190Y-37965000D01*
X25217380Y-38203095D02*
X24217380Y-38203095D01*
X24217380Y-37822142D01*
X24265000Y-37726904D01*
X24312619Y-37679285D01*
X24407857Y-37631666D01*
X24550714Y-37631666D01*
X24645952Y-37679285D01*
X24693571Y-37726904D01*
X24741190Y-37822142D01*
X24741190Y-38203095D01*
X24217380Y-36774523D02*
X24217380Y-36965000D01*
X24265000Y-37060238D01*
X24312619Y-37107857D01*
X24455476Y-37203095D01*
X24645952Y-37250714D01*
X25026904Y-37250714D01*
X25122142Y-37203095D01*
X25169761Y-37155476D01*
X25217380Y-37060238D01*
X25217380Y-36869761D01*
X25169761Y-36774523D01*
X25122142Y-36726904D01*
X25026904Y-36679285D01*
X24788809Y-36679285D01*
X24693571Y-36726904D01*
X24645952Y-36774523D01*
X24598333Y-36869761D01*
X24598333Y-37060238D01*
X24645952Y-37155476D01*
X24693571Y-37203095D01*
X24788809Y-37250714D01*
X33472380Y-38584166D02*
X32996190Y-38917500D01*
X33472380Y-39155595D02*
X32472380Y-39155595D01*
X32472380Y-38774642D01*
X32520000Y-38679404D01*
X32567619Y-38631785D01*
X32662857Y-38584166D01*
X32805714Y-38584166D01*
X32900952Y-38631785D01*
X32948571Y-38679404D01*
X32996190Y-38774642D01*
X32996190Y-39155595D01*
X32472380Y-38250833D02*
X32472380Y-37584166D01*
X33472380Y-38012738D01*
X32202380Y-38584166D02*
X31726190Y-38917500D01*
X32202380Y-39155595D02*
X31202380Y-39155595D01*
X31202380Y-38774642D01*
X31250000Y-38679404D01*
X31297619Y-38631785D01*
X31392857Y-38584166D01*
X31535714Y-38584166D01*
X31630952Y-38631785D01*
X31678571Y-38679404D01*
X31726190Y-38774642D01*
X31726190Y-39155595D01*
X31630952Y-38012738D02*
X31583333Y-38107976D01*
X31535714Y-38155595D01*
X31440476Y-38203214D01*
X31392857Y-38203214D01*
X31297619Y-38155595D01*
X31250000Y-38107976D01*
X31202380Y-38012738D01*
X31202380Y-37822261D01*
X31250000Y-37727023D01*
X31297619Y-37679404D01*
X31392857Y-37631785D01*
X31440476Y-37631785D01*
X31535714Y-37679404D01*
X31583333Y-37727023D01*
X31630952Y-37822261D01*
X31630952Y-38012738D01*
X31678571Y-38107976D01*
X31726190Y-38155595D01*
X31821428Y-38203214D01*
X32011904Y-38203214D01*
X32107142Y-38155595D01*
X32154761Y-38107976D01*
X32202380Y-38012738D01*
X32202380Y-37822261D01*
X32154761Y-37727023D01*
X32107142Y-37679404D01*
X32011904Y-37631785D01*
X31821428Y-37631785D01*
X31726190Y-37679404D01*
X31678571Y-37727023D01*
X31630952Y-37822261D01*
X38552380Y-38584166D02*
X38076190Y-38917500D01*
X38552380Y-39155595D02*
X37552380Y-39155595D01*
X37552380Y-38774642D01*
X37600000Y-38679404D01*
X37647619Y-38631785D01*
X37742857Y-38584166D01*
X37885714Y-38584166D01*
X37980952Y-38631785D01*
X38028571Y-38679404D01*
X38076190Y-38774642D01*
X38076190Y-39155595D01*
X38552380Y-38107976D02*
X38552380Y-37917500D01*
X38504761Y-37822261D01*
X38457142Y-37774642D01*
X38314285Y-37679404D01*
X38123809Y-37631785D01*
X37742857Y-37631785D01*
X37647619Y-37679404D01*
X37600000Y-37727023D01*
X37552380Y-37822261D01*
X37552380Y-38012738D01*
X37600000Y-38107976D01*
X37647619Y-38155595D01*
X37742857Y-38203214D01*
X37980952Y-38203214D01*
X38076190Y-38155595D01*
X38123809Y-38107976D01*
X38171428Y-38012738D01*
X38171428Y-37822261D01*
X38123809Y-37727023D01*
X38076190Y-37679404D01*
X37980952Y-37631785D01*
X37282380Y-39060357D02*
X36806190Y-39393690D01*
X37282380Y-39631785D02*
X36282380Y-39631785D01*
X36282380Y-39250833D01*
X36330000Y-39155595D01*
X36377619Y-39107976D01*
X36472857Y-39060357D01*
X36615714Y-39060357D01*
X36710952Y-39107976D01*
X36758571Y-39155595D01*
X36806190Y-39250833D01*
X36806190Y-39631785D01*
X37282380Y-38107976D02*
X37282380Y-38679404D01*
X37282380Y-38393690D02*
X36282380Y-38393690D01*
X36425238Y-38488928D01*
X36520476Y-38584166D01*
X36568095Y-38679404D01*
X36282380Y-37488928D02*
X36282380Y-37393690D01*
X36330000Y-37298452D01*
X36377619Y-37250833D01*
X36472857Y-37203214D01*
X36663333Y-37155595D01*
X36901428Y-37155595D01*
X37091904Y-37203214D01*
X37187142Y-37250833D01*
X37234761Y-37298452D01*
X37282380Y-37393690D01*
X37282380Y-37488928D01*
X37234761Y-37584166D01*
X37187142Y-37631785D01*
X37091904Y-37679404D01*
X36901428Y-37727023D01*
X36663333Y-37727023D01*
X36472857Y-37679404D01*
X36377619Y-37631785D01*
X36330000Y-37584166D01*
X36282380Y-37488928D01*
X44902380Y-40647857D02*
X44426190Y-40981190D01*
X44902380Y-41219285D02*
X43902380Y-41219285D01*
X43902380Y-40838333D01*
X43950000Y-40743095D01*
X43997619Y-40695476D01*
X44092857Y-40647857D01*
X44235714Y-40647857D01*
X44330952Y-40695476D01*
X44378571Y-40743095D01*
X44426190Y-40838333D01*
X44426190Y-41219285D01*
X44902380Y-39695476D02*
X44902380Y-40266904D01*
X44902380Y-39981190D02*
X43902380Y-39981190D01*
X44045238Y-40076428D01*
X44140476Y-40171666D01*
X44188095Y-40266904D01*
X44902380Y-38743095D02*
X44902380Y-39314523D01*
X44902380Y-39028809D02*
X43902380Y-39028809D01*
X44045238Y-39124047D01*
X44140476Y-39219285D01*
X44188095Y-39314523D01*
X41092380Y-40647857D02*
X40616190Y-40981190D01*
X41092380Y-41219285D02*
X40092380Y-41219285D01*
X40092380Y-40838333D01*
X40140000Y-40743095D01*
X40187619Y-40695476D01*
X40282857Y-40647857D01*
X40425714Y-40647857D01*
X40520952Y-40695476D01*
X40568571Y-40743095D01*
X40616190Y-40838333D01*
X40616190Y-41219285D01*
X41092380Y-39695476D02*
X41092380Y-40266904D01*
X41092380Y-39981190D02*
X40092380Y-39981190D01*
X40235238Y-40076428D01*
X40330476Y-40171666D01*
X40378095Y-40266904D01*
X40187619Y-39314523D02*
X40140000Y-39266904D01*
X40092380Y-39171666D01*
X40092380Y-38933571D01*
X40140000Y-38838333D01*
X40187619Y-38790714D01*
X40282857Y-38743095D01*
X40378095Y-38743095D01*
X40520952Y-38790714D01*
X41092380Y-39362142D01*
X41092380Y-38743095D01*
X49982380Y-40647857D02*
X49506190Y-40981190D01*
X49982380Y-41219285D02*
X48982380Y-41219285D01*
X48982380Y-40838333D01*
X49030000Y-40743095D01*
X49077619Y-40695476D01*
X49172857Y-40647857D01*
X49315714Y-40647857D01*
X49410952Y-40695476D01*
X49458571Y-40743095D01*
X49506190Y-40838333D01*
X49506190Y-41219285D01*
X49982380Y-39695476D02*
X49982380Y-40266904D01*
X49982380Y-39981190D02*
X48982380Y-39981190D01*
X49125238Y-40076428D01*
X49220476Y-40171666D01*
X49268095Y-40266904D01*
X48982380Y-39362142D02*
X48982380Y-38743095D01*
X49363333Y-39076428D01*
X49363333Y-38933571D01*
X49410952Y-38838333D01*
X49458571Y-38790714D01*
X49553809Y-38743095D01*
X49791904Y-38743095D01*
X49887142Y-38790714D01*
X49934761Y-38838333D01*
X49982380Y-38933571D01*
X49982380Y-39219285D01*
X49934761Y-39314523D01*
X49887142Y-39362142D01*
X46172380Y-40647857D02*
X45696190Y-40981190D01*
X46172380Y-41219285D02*
X45172380Y-41219285D01*
X45172380Y-40838333D01*
X45220000Y-40743095D01*
X45267619Y-40695476D01*
X45362857Y-40647857D01*
X45505714Y-40647857D01*
X45600952Y-40695476D01*
X45648571Y-40743095D01*
X45696190Y-40838333D01*
X45696190Y-41219285D01*
X46172380Y-39695476D02*
X46172380Y-40266904D01*
X46172380Y-39981190D02*
X45172380Y-39981190D01*
X45315238Y-40076428D01*
X45410476Y-40171666D01*
X45458095Y-40266904D01*
X45505714Y-38838333D02*
X46172380Y-38838333D01*
X45124761Y-39076428D02*
X45839047Y-39314523D01*
X45839047Y-38695476D01*
X53792380Y-39060357D02*
X53316190Y-39393690D01*
X53792380Y-39631785D02*
X52792380Y-39631785D01*
X52792380Y-39250833D01*
X52840000Y-39155595D01*
X52887619Y-39107976D01*
X52982857Y-39060357D01*
X53125714Y-39060357D01*
X53220952Y-39107976D01*
X53268571Y-39155595D01*
X53316190Y-39250833D01*
X53316190Y-39631785D01*
X53792380Y-38107976D02*
X53792380Y-38679404D01*
X53792380Y-38393690D02*
X52792380Y-38393690D01*
X52935238Y-38488928D01*
X53030476Y-38584166D01*
X53078095Y-38679404D01*
X52792380Y-37203214D02*
X52792380Y-37679404D01*
X53268571Y-37727023D01*
X53220952Y-37679404D01*
X53173333Y-37584166D01*
X53173333Y-37346071D01*
X53220952Y-37250833D01*
X53268571Y-37203214D01*
X53363809Y-37155595D01*
X53601904Y-37155595D01*
X53697142Y-37203214D01*
X53744761Y-37250833D01*
X53792380Y-37346071D01*
X53792380Y-37584166D01*
X53744761Y-37679404D01*
X53697142Y-37727023D01*
X52522380Y-39060357D02*
X52046190Y-39393690D01*
X52522380Y-39631785D02*
X51522380Y-39631785D01*
X51522380Y-39250833D01*
X51570000Y-39155595D01*
X51617619Y-39107976D01*
X51712857Y-39060357D01*
X51855714Y-39060357D01*
X51950952Y-39107976D01*
X51998571Y-39155595D01*
X52046190Y-39250833D01*
X52046190Y-39631785D01*
X52522380Y-38107976D02*
X52522380Y-38679404D01*
X52522380Y-38393690D02*
X51522380Y-38393690D01*
X51665238Y-38488928D01*
X51760476Y-38584166D01*
X51808095Y-38679404D01*
X51522380Y-37250833D02*
X51522380Y-37441309D01*
X51570000Y-37536547D01*
X51617619Y-37584166D01*
X51760476Y-37679404D01*
X51950952Y-37727023D01*
X52331904Y-37727023D01*
X52427142Y-37679404D01*
X52474761Y-37631785D01*
X52522380Y-37536547D01*
X52522380Y-37346071D01*
X52474761Y-37250833D01*
X52427142Y-37203214D01*
X52331904Y-37155595D01*
X52093809Y-37155595D01*
X51998571Y-37203214D01*
X51950952Y-37250833D01*
X51903333Y-37346071D01*
X51903333Y-37536547D01*
X51950952Y-37631785D01*
X51998571Y-37679404D01*
X52093809Y-37727023D01*
X58872380Y-39060357D02*
X58396190Y-39393690D01*
X58872380Y-39631785D02*
X57872380Y-39631785D01*
X57872380Y-39250833D01*
X57920000Y-39155595D01*
X57967619Y-39107976D01*
X58062857Y-39060357D01*
X58205714Y-39060357D01*
X58300952Y-39107976D01*
X58348571Y-39155595D01*
X58396190Y-39250833D01*
X58396190Y-39631785D01*
X58872380Y-38107976D02*
X58872380Y-38679404D01*
X58872380Y-38393690D02*
X57872380Y-38393690D01*
X58015238Y-38488928D01*
X58110476Y-38584166D01*
X58158095Y-38679404D01*
X57872380Y-37774642D02*
X57872380Y-37107976D01*
X58872380Y-37536547D01*
X57602380Y-39060357D02*
X57126190Y-39393690D01*
X57602380Y-39631785D02*
X56602380Y-39631785D01*
X56602380Y-39250833D01*
X56650000Y-39155595D01*
X56697619Y-39107976D01*
X56792857Y-39060357D01*
X56935714Y-39060357D01*
X57030952Y-39107976D01*
X57078571Y-39155595D01*
X57126190Y-39250833D01*
X57126190Y-39631785D01*
X57602380Y-38107976D02*
X57602380Y-38679404D01*
X57602380Y-38393690D02*
X56602380Y-38393690D01*
X56745238Y-38488928D01*
X56840476Y-38584166D01*
X56888095Y-38679404D01*
X57030952Y-37536547D02*
X56983333Y-37631785D01*
X56935714Y-37679404D01*
X56840476Y-37727023D01*
X56792857Y-37727023D01*
X56697619Y-37679404D01*
X56650000Y-37631785D01*
X56602380Y-37536547D01*
X56602380Y-37346071D01*
X56650000Y-37250833D01*
X56697619Y-37203214D01*
X56792857Y-37155595D01*
X56840476Y-37155595D01*
X56935714Y-37203214D01*
X56983333Y-37250833D01*
X57030952Y-37346071D01*
X57030952Y-37536547D01*
X57078571Y-37631785D01*
X57126190Y-37679404D01*
X57221428Y-37727023D01*
X57411904Y-37727023D01*
X57507142Y-37679404D01*
X57554761Y-37631785D01*
X57602380Y-37536547D01*
X57602380Y-37346071D01*
X57554761Y-37250833D01*
X57507142Y-37203214D01*
X57411904Y-37155595D01*
X57221428Y-37155595D01*
X57126190Y-37203214D01*
X57078571Y-37250833D01*
X57030952Y-37346071D01*
X63952380Y-39060357D02*
X63476190Y-39393690D01*
X63952380Y-39631785D02*
X62952380Y-39631785D01*
X62952380Y-39250833D01*
X63000000Y-39155595D01*
X63047619Y-39107976D01*
X63142857Y-39060357D01*
X63285714Y-39060357D01*
X63380952Y-39107976D01*
X63428571Y-39155595D01*
X63476190Y-39250833D01*
X63476190Y-39631785D01*
X63952380Y-38107976D02*
X63952380Y-38679404D01*
X63952380Y-38393690D02*
X62952380Y-38393690D01*
X63095238Y-38488928D01*
X63190476Y-38584166D01*
X63238095Y-38679404D01*
X63952380Y-37631785D02*
X63952380Y-37441309D01*
X63904761Y-37346071D01*
X63857142Y-37298452D01*
X63714285Y-37203214D01*
X63523809Y-37155595D01*
X63142857Y-37155595D01*
X63047619Y-37203214D01*
X63000000Y-37250833D01*
X62952380Y-37346071D01*
X62952380Y-37536547D01*
X63000000Y-37631785D01*
X63047619Y-37679404D01*
X63142857Y-37727023D01*
X63380952Y-37727023D01*
X63476190Y-37679404D01*
X63523809Y-37631785D01*
X63571428Y-37536547D01*
X63571428Y-37346071D01*
X63523809Y-37250833D01*
X63476190Y-37203214D01*
X63380952Y-37155595D01*
X62682380Y-39060357D02*
X62206190Y-39393690D01*
X62682380Y-39631785D02*
X61682380Y-39631785D01*
X61682380Y-39250833D01*
X61730000Y-39155595D01*
X61777619Y-39107976D01*
X61872857Y-39060357D01*
X62015714Y-39060357D01*
X62110952Y-39107976D01*
X62158571Y-39155595D01*
X62206190Y-39250833D01*
X62206190Y-39631785D01*
X61777619Y-38679404D02*
X61730000Y-38631785D01*
X61682380Y-38536547D01*
X61682380Y-38298452D01*
X61730000Y-38203214D01*
X61777619Y-38155595D01*
X61872857Y-38107976D01*
X61968095Y-38107976D01*
X62110952Y-38155595D01*
X62682380Y-38727023D01*
X62682380Y-38107976D01*
X61682380Y-37488928D02*
X61682380Y-37393690D01*
X61730000Y-37298452D01*
X61777619Y-37250833D01*
X61872857Y-37203214D01*
X62063333Y-37155595D01*
X62301428Y-37155595D01*
X62491904Y-37203214D01*
X62587142Y-37250833D01*
X62634761Y-37298452D01*
X62682380Y-37393690D01*
X62682380Y-37488928D01*
X62634761Y-37584166D01*
X62587142Y-37631785D01*
X62491904Y-37679404D01*
X62301428Y-37727023D01*
X62063333Y-37727023D01*
X61872857Y-37679404D01*
X61777619Y-37631785D01*
X61730000Y-37584166D01*
X61682380Y-37488928D01*
X29511666Y-31519880D02*
X29511666Y-32234166D01*
X29464047Y-32377023D01*
X29368809Y-32472261D01*
X29225952Y-32519880D01*
X29130714Y-32519880D01*
X30511666Y-32519880D02*
X29940238Y-32519880D01*
X30225952Y-32519880D02*
X30225952Y-31519880D01*
X30130714Y-31662738D01*
X30035476Y-31757976D01*
X29940238Y-31805595D01*
X23487142Y-31789642D02*
X23439523Y-31837261D01*
X23296666Y-31884880D01*
X23201428Y-31884880D01*
X23058571Y-31837261D01*
X22963333Y-31742023D01*
X22915714Y-31646785D01*
X22868095Y-31456309D01*
X22868095Y-31313452D01*
X22915714Y-31122976D01*
X22963333Y-31027738D01*
X23058571Y-30932500D01*
X23201428Y-30884880D01*
X23296666Y-30884880D01*
X23439523Y-30932500D01*
X23487142Y-30980119D01*
X24439523Y-31884880D02*
X23868095Y-31884880D01*
X24153809Y-31884880D02*
X24153809Y-30884880D01*
X24058571Y-31027738D01*
X23963333Y-31122976D01*
X23868095Y-31170595D01*
X24915714Y-31884880D02*
X25106190Y-31884880D01*
X25201428Y-31837261D01*
X25249047Y-31789642D01*
X25344285Y-31646785D01*
X25391904Y-31456309D01*
X25391904Y-31075357D01*
X25344285Y-30980119D01*
X25296666Y-30932500D01*
X25201428Y-30884880D01*
X25010952Y-30884880D01*
X24915714Y-30932500D01*
X24868095Y-30980119D01*
X24820476Y-31075357D01*
X24820476Y-31313452D01*
X24868095Y-31408690D01*
X24915714Y-31456309D01*
X25010952Y-31503928D01*
X25201428Y-31503928D01*
X25296666Y-31456309D01*
X25344285Y-31408690D01*
X25391904Y-31313452D01*
X24122142Y-42362380D02*
X23788809Y-41886190D01*
X23550714Y-42362380D02*
X23550714Y-41362380D01*
X23931666Y-41362380D01*
X24026904Y-41410000D01*
X24074523Y-41457619D01*
X24122142Y-41552857D01*
X24122142Y-41695714D01*
X24074523Y-41790952D01*
X24026904Y-41838571D01*
X23931666Y-41886190D01*
X23550714Y-41886190D01*
X24503095Y-41457619D02*
X24550714Y-41410000D01*
X24645952Y-41362380D01*
X24884047Y-41362380D01*
X24979285Y-41410000D01*
X25026904Y-41457619D01*
X25074523Y-41552857D01*
X25074523Y-41648095D01*
X25026904Y-41790952D01*
X24455476Y-42362380D01*
X25074523Y-42362380D01*
X26026904Y-42362380D02*
X25455476Y-42362380D01*
X25741190Y-42362380D02*
X25741190Y-41362380D01*
X25645952Y-41505238D01*
X25550714Y-41600476D01*
X25455476Y-41648095D01*
X14374761Y-45529404D02*
X14422380Y-45386547D01*
X14422380Y-45148452D01*
X14374761Y-45053214D01*
X14327142Y-45005595D01*
X14231904Y-44957976D01*
X14136666Y-44957976D01*
X14041428Y-45005595D01*
X13993809Y-45053214D01*
X13946190Y-45148452D01*
X13898571Y-45338928D01*
X13850952Y-45434166D01*
X13803333Y-45481785D01*
X13708095Y-45529404D01*
X13612857Y-45529404D01*
X13517619Y-45481785D01*
X13470000Y-45434166D01*
X13422380Y-45338928D01*
X13422380Y-45100833D01*
X13470000Y-44957976D01*
X14422380Y-44005595D02*
X14422380Y-44577023D01*
X14422380Y-44291309D02*
X13422380Y-44291309D01*
X13565238Y-44386547D01*
X13660476Y-44481785D01*
X13708095Y-44577023D01*
X17811904Y-30884880D02*
X17811904Y-31694404D01*
X17859523Y-31789642D01*
X17907142Y-31837261D01*
X18002380Y-31884880D01*
X18192857Y-31884880D01*
X18288095Y-31837261D01*
X18335714Y-31789642D01*
X18383333Y-31694404D01*
X18383333Y-30884880D01*
X19383333Y-31884880D02*
X18811904Y-31884880D01*
X19097619Y-31884880D02*
X19097619Y-30884880D01*
X19002380Y-31027738D01*
X18907142Y-31122976D01*
X18811904Y-31170595D01*
X20002380Y-30884880D02*
X20097619Y-30884880D01*
X20192857Y-30932500D01*
X20240476Y-30980119D01*
X20288095Y-31075357D01*
X20335714Y-31265833D01*
X20335714Y-31503928D01*
X20288095Y-31694404D01*
X20240476Y-31789642D01*
X20192857Y-31837261D01*
X20097619Y-31884880D01*
X20002380Y-31884880D01*
X19907142Y-31837261D01*
X19859523Y-31789642D01*
X19811904Y-31694404D01*
X19764285Y-31503928D01*
X19764285Y-31265833D01*
X19811904Y-31075357D01*
X19859523Y-30980119D01*
X19907142Y-30932500D01*
X20002380Y-30884880D01*
M02*
